<svg width="492" height="279" viewBox="0 0 492 279" fill="none" xmlns="http://www.w3.org/2000/svg">
<path d="M0 242.268V211.768L76.4736 91.2888H102.77V133.506H87.2067L38.9971 209.801V211.232H147.67V242.268H0ZM87.9223 274.468V232.966L88.6378 219.46V91.2888H124.952V274.468H87.9223Z" fill="#2F2F2F"/>
<path d="M245.297 278.493C229.913 278.433 216.675 274.647 205.584 267.133C194.553 259.62 186.056 248.738 180.093 234.487C174.19 220.236 171.268 203.092 171.328 183.057C171.328 163.082 174.279 146.058 180.183 131.985C186.145 117.913 194.642 107.21 205.674 99.8753C216.765 92.4814 229.972 88.7844 245.297 88.7844C260.621 88.7844 273.799 92.4814 284.831 99.8753C295.922 107.269 304.448 118.002 310.411 132.075C316.374 146.087 319.326 163.082 319.266 183.057C319.266 203.152 316.285 220.325 310.322 234.576C304.419 248.827 295.951 259.71 284.92 267.223C273.889 274.736 260.681 278.493 245.297 278.493ZM245.297 246.383C255.792 246.383 264.169 241.106 270.43 230.551C276.691 219.997 279.792 204.166 279.732 183.057C279.732 169.164 278.301 157.596 275.439 148.353C272.637 139.111 268.642 132.164 263.454 127.513C258.326 122.862 252.273 120.537 245.297 120.537C234.862 120.537 226.514 125.754 220.253 136.189C213.992 146.624 210.832 162.247 210.772 183.057C210.772 197.129 212.173 208.876 214.976 218.298C217.838 227.659 221.863 234.695 227.051 239.406C232.238 244.057 238.32 246.383 245.297 246.383Z" fill="#2F2F2F"/>
<path d="M344.109 242.268V211.768L420.582 91.2888H446.879V133.506H431.316L383.106 209.801V211.232H491.779V242.268H344.109ZM432.031 274.468V232.966L432.747 219.46V91.2888H469.061V274.468H432.031Z" fill="#2F2F2F"/>
<g clip-path="url(#clip0_119_603)">
<path d="M288.63 69.8394H202.029C200.699 69.8394 199.623 70.9165 199.623 72.2449V89.4635C199.623 104.089 219.699 115.546 245.329 115.546C270.959 115.546 291.035 104.088 291.035 89.4635V72.2449C291.035 70.9165 289.96 69.8394 288.63 69.8394Z" fill="#5D7F7D"/>
<path d="M245.404 69.8394H202.029C200.699 69.8394 199.623 70.9165 199.623 72.2449V89.4635C199.623 104.089 219.699 115.546 245.329 115.546C245.354 115.546 245.379 115.543 245.404 115.543V69.8394Z" fill="#546A66"/>
<path d="M315 44.1579L253.847 17.9475C248.435 15.6288 242.219 15.63 236.802 17.9535L175.664 44.1555C172.065 45.6978 169.83 49.0876 169.83 53.0015C169.83 56.9142 172.065 60.3003 175.661 61.8414L236.811 88.0515C239.515 89.2098 242.418 89.7886 245.324 89.7886C248.235 89.7886 251.146 89.2083 253.857 88.0455L314.995 61.8435C318.594 60.3024 320.83 56.9127 320.83 52.9988C320.83 49.0864 318.596 45.699 315 44.1579Z" fill="#52928A"/>
<path d="M185.19 103.518C183.86 103.518 182.784 102.441 182.784 101.112V64.6464C182.782 63.5123 183.181 62.4141 183.911 61.5464C184.642 60.6786 185.655 60.0973 186.773 59.9056L235.296 51.4662C235.607 51.4122 235.926 51.42 236.234 51.4893C236.542 51.5585 236.834 51.6878 237.092 51.8698C237.351 52.0517 237.571 52.2828 237.74 52.5497C237.909 52.8166 238.023 53.1142 238.077 53.4255C238.131 53.7368 238.123 54.0557 238.054 54.3639C237.985 54.6722 237.856 54.9638 237.674 55.222C237.492 55.4803 237.261 55.7002 236.994 55.8692C236.727 56.0382 236.429 56.153 236.118 56.207L187.595 64.6464V101.112C187.595 101.428 187.533 101.741 187.412 102.033C187.291 102.324 187.114 102.59 186.891 102.813C186.667 103.037 186.402 103.214 186.11 103.335C185.818 103.456 185.505 103.518 185.19 103.518Z" fill="#546A66"/>
<path d="M185.19 108.329C187.847 108.329 190.001 106.175 190.001 103.518C190.001 100.86 187.847 98.7064 185.19 98.7064C182.532 98.7064 180.378 100.86 180.378 103.518C180.378 106.175 182.532 108.329 185.19 108.329Z" fill="#FF9600"/>
<path d="M235.707 50.5947V55.4059C235.707 58.0629 240.015 60.2171 245.329 60.2171C250.643 60.2171 254.952 58.0629 254.952 55.4059V50.5947H235.707Z" fill="#FF9600"/>
<path d="M245.329 55.4058C250.644 55.4058 254.952 53.2518 254.952 50.5946C254.952 47.9375 250.644 45.7834 245.329 45.7834C240.015 45.7834 235.707 47.9375 235.707 50.5946C235.707 53.2518 240.015 55.4058 245.329 55.4058Z" fill="#FFD200"/>
<path d="M180.246 113.12L178.515 132.167C178.387 133.575 179.496 134.79 180.911 134.79H190.076C191.49 134.79 192.599 133.575 192.471 132.167L190.74 113.12C190.493 110.406 188.218 108.328 185.493 108.328C182.769 108.329 180.493 110.406 180.246 113.12Z" fill="#FFD200"/>
</g>
<defs>
<clipPath id="clip0_119_603">
<rect width="151" height="151" fill="white" transform="translate(169.83)"/>
</clipPath>
</defs>
</svg>
