<svg width="41" height="41" viewBox="0 0 41 41" fill="none" xmlns="http://www.w3.org/2000/svg">
<circle cx="20.5" cy="20.5" r="20.5" fill="white"/>
<path fill-rule="evenodd" clip-rule="evenodd" d="M26.8513 14.4512C26.9368 14.3658 27.0047 14.2644 27.051 14.1528C27.0973 14.0411 27.1212 13.9215 27.1213 13.8006C27.1213 13.6797 27.0976 13.56 27.0514 13.4483C27.0052 13.3366 26.9375 13.2351 26.8521 13.1496C26.7667 13.0641 26.6653 12.9963 26.5536 12.9499C26.442 12.9036 26.3223 12.8797 26.2015 12.8797C26.0806 12.8796 25.9609 12.9033 25.8492 12.9495C25.7375 12.9957 25.636 13.0634 25.5505 13.1488L20.0001 18.6992L14.4513 13.1488C14.2786 12.9761 14.0443 12.8791 13.8001 12.8791C13.5558 12.8791 13.3216 12.9761 13.1489 13.1488C12.9762 13.3215 12.8792 13.5558 12.8792 13.8C12.8792 14.0443 12.9762 14.2785 13.1489 14.4512L18.6993 20L13.1489 25.5488C13.0634 25.6343 12.9955 25.7359 12.9493 25.8476C12.903 25.9593 12.8792 26.0791 12.8792 26.2C12.8792 26.321 12.903 26.4407 12.9493 26.5525C12.9955 26.6642 13.0634 26.7657 13.1489 26.8512C13.3216 27.0239 13.5558 27.121 13.8001 27.121C13.921 27.121 14.0408 27.0971 14.1525 27.0509C14.2642 27.0046 14.3658 26.9367 14.4513 26.8512L20.0001 21.3008L25.5505 26.8512C25.7232 27.0237 25.9574 27.1205 26.2015 27.1204C26.4456 27.1202 26.6796 27.0231 26.8521 26.8504C27.0246 26.6777 27.1214 26.4436 27.1213 26.1995C27.1211 25.9554 27.024 25.7213 26.8513 25.5488L21.3009 20L26.8513 14.4512Z" fill="#303030"/>
</svg>
