<svg width="41" height="41" viewBox="0 0 41 41" fill="none" xmlns="http://www.w3.org/2000/svg">
<circle cx="20.5" cy="20.5" r="20.5" fill="white"/>
<path fill-rule="evenodd" clip-rule="evenodd" d="M27.851 14.4512C27.9366 14.3658 28.0044 14.2643 28.0507 14.1527C28.0971 14.0411 28.1209 13.9214 28.121 13.8005C28.1211 13.6797 28.0974 13.56 28.0512 13.4483C28.005 13.3366 27.9373 13.2351 27.8518 13.1496C27.7664 13.064 27.665 12.9962 27.5534 12.9499C27.4417 12.9035 27.3221 12.8797 27.2012 12.8796C27.0803 12.8795 26.9606 12.9033 26.849 12.9494C26.7373 12.9956 26.6358 13.0634 26.5502 13.1488L20.9998 18.6992L15.451 13.1488C15.2783 12.9761 15.0441 12.879 14.7998 12.879C14.5556 12.879 14.3214 12.9761 14.1486 13.1488C13.9759 13.3215 13.8789 13.5557 13.8789 13.8C13.8789 14.0442 13.9759 14.2785 14.1486 14.4512L19.699 20L14.1486 25.5488C14.0631 25.6343 13.9953 25.7358 13.949 25.8475C13.9027 25.9593 13.8789 26.079 13.8789 26.2C13.8789 26.3209 13.9027 26.4407 13.949 26.5524C13.9953 26.6641 14.0631 26.7656 14.1486 26.8512C14.3214 27.0239 14.5556 27.1209 14.7998 27.1209C14.9208 27.1209 15.0405 27.0971 15.1523 27.0508C15.264 27.0045 15.3655 26.9367 15.451 26.8512L20.9998 21.3008L26.5502 26.8512C26.723 27.0237 26.9571 27.1205 27.2012 27.1203C27.4453 27.1202 27.6793 27.0231 27.8518 26.8504C28.0243 26.6777 28.1212 26.4435 28.121 26.1994C28.1209 25.9553 28.0238 25.7213 27.851 25.5488L22.3006 20L27.851 14.4512Z" fill="#303030"/>
</svg>
