<svg width="41" height="41" viewBox="0 0 41 41" fill="none" xmlns="http://www.w3.org/2000/svg">
<circle cx="20.5" cy="20.5" r="20.5" fill="#E0E0E0"/>
<path fill-rule="evenodd" clip-rule="evenodd" d="M27.8513 14.4512C27.9368 14.3658 28.0047 14.2644 28.051 14.1528C28.0973 14.0411 28.1212 13.9215 28.1213 13.8006C28.1213 13.6797 28.0976 13.56 28.0514 13.4483C28.0052 13.3366 27.9375 13.2351 27.8521 13.1496C27.7667 13.0641 27.6653 12.9963 27.5536 12.9499C27.442 12.9036 27.3223 12.8797 27.2015 12.8797C27.0806 12.8796 26.9609 12.9033 26.8492 12.9495C26.7375 12.9957 26.636 13.0634 26.5505 13.1488L21.0001 18.6992L15.4513 13.1488C15.2786 12.9761 15.0443 12.8791 14.8001 12.8791C14.5558 12.8791 14.3216 12.9761 14.1489 13.1488C13.9762 13.3215 13.8792 13.5558 13.8792 13.8C13.8792 14.0443 13.9762 14.2785 14.1489 14.4512L19.6993 20L14.1489 25.5488C14.0634 25.6343 13.9955 25.7359 13.9493 25.8476C13.903 25.9593 13.8792 26.0791 13.8792 26.2C13.8792 26.321 13.903 26.4407 13.9493 26.5525C13.9955 26.6642 14.0634 26.7657 14.1489 26.8512C14.3216 27.0239 14.5558 27.121 14.8001 27.121C14.921 27.121 15.0408 27.0971 15.1525 27.0509C15.2642 27.0046 15.3658 26.9367 15.4513 26.8512L21.0001 21.3008L26.5505 26.8512C26.7232 27.0237 26.9574 27.1205 27.2015 27.1204C27.4456 27.1202 27.6796 27.0231 27.8521 26.8504C28.0246 26.6777 28.1214 26.4436 28.1213 26.1995C28.1211 25.9554 28.024 25.7213 27.8513 25.5488L22.3009 20L27.8513 14.4512Z" fill="#303030"/>
</svg>
