<svg width="31" height="31" viewBox="0 0 31 31" fill="none" xmlns="http://www.w3.org/2000/svg">
<path d="M15.5 11.625C14.4723 11.625 13.4867 12.0333 12.76 12.76C12.0333 13.4867 11.625 14.4723 11.625 15.5C11.625 16.5277 12.0333 17.5133 12.76 18.24C13.4867 18.9667 14.4723 19.375 15.5 19.375C16.5277 19.375 17.5134 18.9667 18.2401 18.24C18.9668 17.5133 19.375 16.5277 19.375 15.5C19.375 14.4723 18.9668 13.4867 18.2401 12.76C17.5134 12.0333 16.5277 11.625 15.5 11.625ZM15.5 21.9583C13.7872 21.9583 12.1445 21.2779 10.9333 20.0667C9.72212 18.8556 9.04169 17.2129 9.04169 15.5C9.04169 13.7871 9.72212 12.1444 10.9333 10.9333C12.1445 9.7221 13.7872 9.04167 15.5 9.04167C17.2129 9.04167 18.8556 9.7221 20.0668 10.9333C21.2779 12.1444 21.9584 13.7871 21.9584 15.5C21.9584 17.2129 21.2779 18.8556 20.0668 20.0667C18.8556 21.2779 17.2129 21.9583 15.5 21.9583ZM15.5 5.8125C9.04169 5.8125 3.52627 9.82958 1.29169 15.5C3.52627 21.1704 9.04169 25.1875 15.5 25.1875C21.9584 25.1875 27.4738 21.1704 29.7084 15.5C27.4738 9.82958 21.9584 5.8125 15.5 5.8125Z" fill="#BDBDBD"/>
</svg>
