<svg width="68" height="68" viewBox="0 0 68 68" fill="none" xmlns="http://www.w3.org/2000/svg">
<g clip-path="url(#clip0_309_306)">
<path d="M56.0801 56.0802C61.7303 50.43 65.2261 42.6232 65.2261 34.0012C65.2261 25.3792 61.7303 17.5724 56.0801 11.9222C50.4299 6.27202 42.6231 2.77619 34.0011 2.77619C25.3792 2.77619 17.5723 6.27202 11.9222 11.9222C6.27199 17.5724 2.77615 25.3792 2.77615 34.0012C2.77615 42.6232 6.27199 50.43 11.9222 56.0802C17.5723 61.7303 25.3792 65.2262 34.0011 65.2262C42.6231 65.2262 50.4299 61.7303 56.0801 56.0802ZM67.0101 33.9988C67.0101 43.1146 63.3163 51.3662 57.3424 57.3401C51.3685 63.314 43.1169 67.0078 34.0011 67.0078C24.8854 67.0078 16.6337 63.314 10.6598 57.3401C4.68594 51.3686 0.989807 43.1146 0.989807 33.9988C0.989807 24.8831 4.68594 16.6314 10.6575 10.6575C16.6314 4.68597 24.8854 0.989838 33.9988 0.989838C43.1145 0.989838 51.3662 4.68364 57.3401 10.6575C63.314 16.6314 67.0101 24.8854 67.0101 33.9988Z" fill="url(#paint0_linear_309_306)"/>
<path d="M54.189 13.811C59.3547 18.9767 62.5501 26.1151 62.5501 33.9988C62.5501 41.8825 59.3547 49.0209 54.189 54.1867C49.0232 59.3524 41.8848 62.5478 34.0011 62.5478C26.1174 62.5478 18.979 59.3524 13.8133 54.1867C8.64757 49.0209 5.45217 41.8825 5.45217 33.9988C5.45217 26.1151 8.64757 18.9767 13.8133 13.811C18.979 8.64527 26.1174 5.44987 34.0011 5.44987C41.8848 5.44987 49.0209 8.64527 54.189 13.811ZM64.1827 33.9988C64.1827 25.6633 60.8033 18.1197 55.3418 12.6558C49.8803 7.1943 42.3343 3.81491 33.9988 3.81491C25.6656 3.81491 18.1196 7.1943 12.6558 12.6558C7.19194 18.1173 3.81488 25.6633 3.81488 33.9988C3.81488 42.3343 7.19427 49.878 12.6558 55.3418C18.1173 60.8057 25.6633 64.1828 33.9988 64.1828C42.332 64.1828 49.878 60.8034 55.3418 55.3418C60.8033 49.8803 64.1827 42.3343 64.1827 33.9988Z" fill="url(#paint1_linear_309_306)"/>
<path d="M23.7884 16.8597H45.164C46.4264 16.8597 47.4488 15.8372 47.4488 14.5726C47.4488 13.3103 46.4264 12.2878 45.164 12.2878H23.7884C22.5261 12.2878 21.5013 13.3103 21.5013 14.5726C21.5037 15.8372 22.5261 16.8597 23.7884 16.8597ZM23.7628 14.1045H45.1384C45.39 14.1045 45.5949 14.3094 45.5949 14.561C45.5949 14.8125 45.39 15.0174 45.1384 15.0174H23.7628C23.5113 15.0174 23.3063 14.8125 23.3063 14.561C23.3063 14.3094 23.5113 14.1045 23.7628 14.1045Z" fill="url(#paint2_linear_309_306)"/>
<path d="M37.2315 36.8798C38.4938 36.8798 39.5185 35.8574 39.5185 34.5951V27.2657C39.7119 27.6593 40.0216 27.9993 40.4315 28.2322C41.5262 28.8587 42.9212 28.4791 43.5477 27.3845L47.2252 20.9611C47.8517 19.8664 47.4721 18.4714 46.3775 17.8449C45.2828 17.2184 43.8878 17.598 43.2613 18.6926L39.5814 25.1183C39.5581 25.1579 39.5372 25.1975 39.5185 25.2371V19.8268C39.5185 18.5645 38.4961 17.5421 37.2315 17.5421C37.1732 17.5421 37.115 17.5444 37.0568 17.5491C36.2347 17.5817 35.4568 18.0591 35.0795 18.8556L31.4485 26.5157C31.4579 26.4319 31.4625 26.3457 31.4625 26.2572V19.8292C31.4625 18.5668 30.4401 17.5444 29.1778 17.5444C27.9154 17.5444 26.893 18.5668 26.893 19.8292V26.2572C26.893 27.5195 27.9154 28.542 29.1778 28.542C29.8206 28.542 30.4005 28.2765 30.8151 27.8503L28.0808 33.6192C27.5428 34.7581 28.0319 36.1182 29.1708 36.6562C30.3097 37.1942 31.6698 36.7052 32.2078 35.5663L34.949 29.7857V34.5974C34.9467 35.8574 35.9691 36.8798 37.2315 36.8798ZM41.1419 26.0127L44.8217 19.587C44.9475 19.368 45.2269 19.2912 45.4459 19.4169C45.6648 19.5427 45.7417 19.8222 45.6159 20.0411L41.9361 26.4668C41.8103 26.6858 41.5308 26.7626 41.3119 26.6369C41.093 26.5111 41.0161 26.2316 41.1419 26.0127ZM29.6086 26.2409C29.6086 26.4925 29.4037 26.6974 29.1521 26.6974C28.9006 26.6974 28.6957 26.4925 28.6957 26.2409V19.8129C28.6957 19.5613 28.9006 19.3564 29.1521 19.3564C29.4037 19.3564 29.6086 19.5613 29.6086 19.8129V26.2409ZM30.5286 34.7744C30.4215 35.0026 30.149 35.1005 29.9207 34.9933C29.6925 34.8862 29.5947 34.6137 29.7018 34.3855L36.7005 19.6219C36.7843 19.4449 36.9683 19.3471 37.1523 19.361C37.1686 19.3587 37.1849 19.3587 37.2012 19.3587C37.4527 19.3587 37.6577 19.5637 37.6577 19.8152V34.5834C37.6577 34.835 37.4527 35.0399 37.2012 35.0399C36.9497 35.0399 36.7447 34.835 36.7447 34.5834V21.6551L30.5286 34.7744Z" fill="url(#paint3_linear_309_306)"/>
<path d="M21.6342 19.8268V34.5904C21.6342 35.8527 22.6566 36.8752 23.9189 36.8752C25.1812 36.8752 26.2037 35.8527 26.2037 34.5904V19.8268C26.2037 18.5645 25.1812 17.5421 23.9189 17.5421C22.6566 17.5398 21.6342 18.5645 21.6342 19.8268ZM24.3498 19.8152V34.5788C24.3498 34.8303 24.1448 35.0353 23.8933 35.0353C23.6418 35.0353 23.4368 34.8303 23.4368 34.5788V19.8152C23.4368 19.5637 23.6418 19.3587 23.8933 19.3587C24.1448 19.3587 24.3498 19.5613 24.3498 19.8152Z" fill="url(#paint4_linear_309_306)"/>
<path d="M23.7884 43.0587H45.1384C46.4007 43.0587 47.4255 42.0363 47.4255 40.7739C47.4255 39.5116 46.4031 38.4868 45.1384 38.4868H23.7884C22.5261 38.4868 21.5013 39.5093 21.5013 40.7739C21.5037 42.0363 22.5261 43.0587 23.7884 43.0587ZM23.7628 40.3035H45.1128C45.3643 40.3035 45.5693 40.5084 45.5693 40.76C45.5693 41.0115 45.3643 41.2164 45.1128 41.2164H23.7628C23.5113 41.2164 23.3063 41.0115 23.3063 40.76C23.3063 40.5084 23.5113 40.3035 23.7628 40.3035Z" fill="url(#paint5_linear_309_306)"/>
<path d="M38.7826 46.1469C38.7826 44.8846 37.7602 43.8599 36.4978 43.8599H15.8559C14.5935 43.8599 13.5711 44.8823 13.5711 46.1469C13.5711 47.4093 14.5935 48.4317 15.8559 48.4317H36.4978C37.7602 48.4317 38.7826 47.4093 38.7826 46.1469ZM15.8302 46.5918C15.5787 46.5918 15.3738 46.3868 15.3738 46.1353C15.3738 45.8838 15.5787 45.6788 15.8302 45.6788H36.4722C36.7238 45.6788 36.9287 45.8838 36.9287 46.1353C36.9287 46.3868 36.7238 46.5918 36.4722 46.5918H15.8302Z" fill="url(#paint6_linear_309_306)"/>
<path d="M50.4579 49.1257H23.9189C22.6566 49.1257 21.6342 50.1482 21.6342 51.4128C21.6342 52.6751 22.6566 53.6976 23.9189 53.6976H50.4579C51.7203 53.6976 52.7427 52.6751 52.7427 51.4128C52.745 50.1505 51.7203 49.1257 50.4579 49.1257ZM50.4323 51.8577H23.8933C23.6418 51.8577 23.4368 51.6527 23.4368 51.4012C23.4368 51.1496 23.6418 50.9447 23.8933 50.9447H50.4323C50.6839 50.9447 50.8888 51.1496 50.8888 51.4012C50.8888 51.6527 50.6862 51.8577 50.4323 51.8577Z" fill="url(#paint7_linear_309_306)"/>
</g>
<defs>
<linearGradient id="paint0_linear_309_306" x1="33.9998" y1="0.990303" x2="33.9998" y2="67.0094" gradientUnits="userSpaceOnUse">
<stop stop-color="#088982"/>
<stop offset="1" stop-color="#C1EB47"/>
</linearGradient>
<linearGradient id="paint1_linear_309_306" x1="33.9998" y1="64.1824" x2="33.9998" y2="3.81726" gradientUnits="userSpaceOnUse">
<stop stop-color="#088982"/>
<stop offset="1" stop-color="#C1EB47"/>
</linearGradient>
<linearGradient id="paint2_linear_309_306" x1="26.98" y1="55.8101" x2="34.5234" y2="14.3209" gradientUnits="userSpaceOnUse">
<stop stop-color="#088982"/>
<stop offset="1" stop-color="#C1EB47"/>
</linearGradient>
<linearGradient id="paint3_linear_309_306" x1="30.5489" y1="56.459" x2="38.0924" y2="14.9699" gradientUnits="userSpaceOnUse">
<stop stop-color="#088982"/>
<stop offset="1" stop-color="#C1EB47"/>
</linearGradient>
<linearGradient id="paint4_linear_309_306" x1="18.9832" y1="54.3561" x2="26.5267" y2="12.867" gradientUnits="userSpaceOnUse">
<stop stop-color="#088982"/>
<stop offset="1" stop-color="#C1EB47"/>
</linearGradient>
<linearGradient id="paint5_linear_309_306" x1="31.5783" y1="56.6462" x2="39.1218" y2="15.157" gradientUnits="userSpaceOnUse">
<stop stop-color="#088982"/>
<stop offset="1" stop-color="#C1EB47"/>
</linearGradient>
<linearGradient id="paint6_linear_309_306" x1="24.5011" y1="55.3594" x2="32.0446" y2="13.8703" gradientUnits="userSpaceOnUse">
<stop stop-color="#088982"/>
<stop offset="1" stop-color="#C1EB47"/>
</linearGradient>
<linearGradient id="paint7_linear_309_306" x1="36.0881" y1="57.4661" x2="43.6316" y2="15.977" gradientUnits="userSpaceOnUse">
<stop stop-color="#088982"/>
<stop offset="1" stop-color="#C1EB47"/>
</linearGradient>
<clipPath id="clip0_309_306">
<rect width="68" height="68" fill="white"/>
</clipPath>
</defs>
</svg>
