<svg width="45" height="51" viewBox="0 0 45 51" fill="none" xmlns="http://www.w3.org/2000/svg">
<path d="M3.15135 0.5H29.7208L43.6192 14.307V47.143C43.6192 48.6018 42.4327 49.7858 40.9679 49.7858H3.15135C1.68645 49.7858 0.5 48.6018 0.5 47.143V3.14283C0.5 1.68405 1.6866 0.5 3.15135 0.5Z" fill="white" stroke="#303030"/>
<path d="M32.2985 23.8275C32.8264 23.8275 33.0848 23.3686 33.0848 22.9239C33.0848 22.4634 32.8153 22.0187 32.2985 22.0187H29.2921C28.7044 22.0187 28.3766 22.5043 28.3766 23.0402V30.4086C28.3766 31.0655 28.7516 31.43 29.259 31.43C29.7633 31.43 30.1399 31.0655 30.1399 30.4086V28.3862H31.9583C32.5224 28.3862 32.8044 27.9257 32.8044 27.4685C32.8044 27.0207 32.5224 26.5758 31.9583 26.5758H30.1399V23.8275H32.2985ZM22.1369 22.0187H19.9372C19.34 22.0187 18.9161 22.4273 18.9161 23.0338V30.4149C18.9161 31.1676 19.5258 31.4033 19.9623 31.4033H22.2707C25.0029 31.4033 26.8071 29.6104 26.8071 26.843C26.8056 23.9171 25.1071 22.0187 22.1369 22.0187ZM22.2425 29.5837H20.9016V23.8385H22.1101C23.9396 23.8385 24.7352 25.0627 24.7352 26.7519C24.7352 28.3329 23.9536 29.5837 22.2425 29.5837ZM14.1844 22.0187H12.0053C11.3891 22.0187 11.0456 22.4241 11.0456 23.0402V30.4086C11.0456 31.0655 11.4395 31.43 11.9689 31.43C12.4983 31.43 12.8922 31.0655 12.8922 30.4086V28.2573H14.2583C15.9442 28.2573 17.3356 27.0661 17.3356 25.1505C17.3358 23.2759 15.9933 22.0187 14.1844 22.0187ZM14.1482 26.5288H12.8923V23.7489H14.1482C14.9235 23.7489 15.4167 24.3523 15.4167 25.1396C15.415 25.9255 14.9235 26.5288 14.1482 26.5288Z" fill="#088982"/>
</svg>
