<svg width="175" height="35" viewBox="0 0 175 35" fill="none" xmlns="http://www.w3.org/2000/svg">
<g id="Group 58">
<path id="Star 6" d="M16.5489 2.92705C16.8483 2.00574 18.1517 2.00574 18.4511 2.92705L21.2045 11.4012C21.3384 11.8132 21.7223 12.0922 22.1555 12.0922L31.0658 12.0922C32.0345 12.0922 32.4373 13.3318 31.6536 13.9012L24.445 19.1385C24.0945 19.3932 23.9479 19.8446 24.0818 20.2566L26.8352 28.7308C27.1345 29.6521 26.0801 30.4182 25.2963 29.8488L18.0878 24.6115C17.7373 24.3568 17.2627 24.3568 16.9122 24.6115L9.70365 29.8488C8.91994 30.4182 7.86546 29.6521 8.16481 28.7307L10.9182 20.2566C11.0521 19.8446 10.9055 19.3932 10.555 19.1385L3.34641 13.9012C2.56269 13.3318 2.96547 12.0922 3.93419 12.0922L12.8445 12.0922C13.2777 12.0922 13.6616 11.8132 13.7955 11.4012L16.5489 2.92705Z" fill="#FFD88D"/>
<path id="Star 7" d="M51.5489 2.92705C51.8483 2.00574 53.1517 2.00574 53.4511 2.92705L56.2045 11.4012C56.3384 11.8132 56.7223 12.0922 57.1555 12.0922L66.0658 12.0922C67.0345 12.0922 67.4373 13.3318 66.6536 13.9012L59.445 19.1385C59.0945 19.3932 58.9479 19.8446 59.0818 20.2566L61.8352 28.7308C62.1345 29.6521 61.0801 30.4182 60.2963 29.8488L53.0878 24.6115C52.7373 24.3568 52.2627 24.3568 51.9122 24.6115L44.7037 29.8488C43.9199 30.4182 42.8655 29.6521 43.1648 28.7307L45.9182 20.2566C46.0521 19.8446 45.9055 19.3932 45.555 19.1385L38.3464 13.9012C37.5627 13.3318 37.9655 12.0922 38.9342 12.0922L47.8445 12.0922C48.2777 12.0922 48.6616 11.8132 48.7955 11.4012L51.5489 2.92705Z" fill="#FFD88D"/>
<path id="Star 8" d="M86.5489 2.92705C86.8483 2.00574 88.1517 2.00574 88.4511 2.92705L91.2045 11.4012C91.3384 11.8132 91.7223 12.0922 92.1555 12.0922L101.066 12.0922C102.035 12.0922 102.437 13.3318 101.654 13.9012L94.445 19.1385C94.0945 19.3932 93.9479 19.8446 94.0818 20.2566L96.8352 28.7308C97.1345 29.6521 96.0801 30.4182 95.2963 29.8488L88.0878 24.6115C87.7373 24.3568 87.2627 24.3568 86.9122 24.6115L79.7037 29.8488C78.9199 30.4182 77.8655 29.6521 78.1648 28.7307L80.9182 20.2566C81.0521 19.8446 80.9055 19.3932 80.555 19.1385L73.3464 13.9012C72.5627 13.3318 72.9655 12.0922 73.9342 12.0922L82.8445 12.0922C83.2777 12.0922 83.6616 11.8132 83.7955 11.4012L86.5489 2.92705Z" fill="#FFD88D"/>
<path id="Star 9" d="M121.549 2.92705C121.848 2.00574 123.152 2.00574 123.451 2.92705L126.204 11.4012C126.338 11.8132 126.722 12.0922 127.156 12.0922L136.066 12.0922C137.035 12.0922 137.437 13.3318 136.654 13.9012L129.445 19.1385C129.095 19.3932 128.948 19.8446 129.082 20.2566L131.835 28.7308C132.135 29.6521 131.08 30.4182 130.296 29.8488L123.088 24.6115C122.737 24.3568 122.263 24.3568 121.912 24.6115L114.704 29.8488C113.92 30.4182 112.865 29.6521 113.165 28.7307L115.918 20.2566C116.052 19.8446 115.905 19.3932 115.555 19.1385L108.346 13.9012C107.563 13.3318 107.965 12.0922 108.934 12.0922L117.844 12.0922C118.278 12.0922 118.662 11.8132 118.796 11.4012L121.549 2.92705Z" fill="#D5D5D5"/>
<path id="Star 10" d="M156.549 2.92705C156.848 2.00574 158.152 2.00574 158.451 2.92705L161.204 11.4012C161.338 11.8132 161.722 12.0922 162.156 12.0922L171.066 12.0922C172.035 12.0922 172.437 13.3318 171.654 13.9012L164.445 19.1385C164.095 19.3932 163.948 19.8446 164.082 20.2566L166.835 28.7308C167.135 29.6521 166.08 30.4182 165.296 29.8488L158.088 24.6115C157.737 24.3568 157.263 24.3568 156.912 24.6115L149.704 29.8488C148.92 30.4182 147.865 29.6521 148.165 28.7307L150.918 20.2566C151.052 19.8446 150.905 19.3932 150.555 19.1385L143.346 13.9012C142.563 13.3318 142.965 12.0922 143.934 12.0922L152.844 12.0922C153.278 12.0922 153.662 11.8132 153.796 11.4012L156.549 2.92705Z" fill="#D5D5D5"/>
</g>
</svg>
