<svg width="15" height="15" viewBox="0 0 15 15" fill="none" xmlns="http://www.w3.org/2000/svg">
<g id="Frame">
<g id="Group">
<path id="Vector" d="M6.06687 11.9506C6.00896 12.0089 5.94011 12.0551 5.86428 12.0866C5.78844 12.1182 5.70713 12.1344 5.625 12.1344C5.54287 12.1344 5.46155 12.1182 5.38571 12.0866C5.30988 12.0551 5.24103 12.0089 5.18312 11.9506L1.65437 8.42126C1.47862 8.24545 1.37988 8.00704 1.37988 7.75845C1.37988 7.50986 1.47862 7.27144 1.65437 7.09563L2.09625 6.65376C2.27205 6.47801 2.51047 6.37927 2.75906 6.37927C3.00765 6.37927 3.24606 6.47801 3.42187 6.65376L5.625 8.85688L11.5781 2.90376C11.7539 2.72801 11.9923 2.62927 12.2409 2.62927C12.4895 2.62927 12.7279 2.72801 12.9037 2.90376L13.3456 3.34563C13.5214 3.52144 13.6201 3.75986 13.6201 4.00845C13.6201 4.25704 13.5214 4.49545 13.3456 4.67126L6.06687 11.9506Z" fill="#303030"/>
</g>
</g>
</svg>
