<svg width="81" height="25" viewBox="0 0 81 25" fill="none" xmlns="http://www.w3.org/2000/svg">
<path d="M11.2333 15.626V18.788C11.2333 20.7147 10.7573 22.1993 9.80534 23.242C8.87601 24.262 7.49334 24.772 5.65734 24.772C3.82134 24.772 2.42734 24.262 1.47534 23.242C0.54601 22.1993 0.0813438 20.7147 0.0813438 18.788V6.412C0.0813438 4.48533 0.54601 3.012 1.47534 1.992C2.42734 0.949333 3.82134 0.428 5.65734 0.428C7.49334 0.428 8.87601 0.949333 9.80534 1.992C10.7573 3.012 11.2333 4.48533 11.2333 6.412V8.724H7.69734V6.174C7.69734 5.31267 7.51601 4.712 7.15334 4.372C6.81334 4.00933 6.34868 3.828 5.75934 3.828C5.17001 3.828 4.69401 4.00933 4.33134 4.372C3.99134 4.712 3.82134 5.31267 3.82134 6.174V19.026C3.82134 19.8873 3.99134 20.488 4.33134 20.828C4.69401 21.168 5.17001 21.338 5.75934 21.338C6.34868 21.338 6.81334 21.168 7.15334 20.828C7.51601 20.488 7.69734 19.8873 7.69734 19.026V15.626H11.2333ZM17.3446 24.5H13.5026V0.699998H16.8346V15.762L18.1946 10.526L21.2546 0.699998H25.3686V24.5H22.0026V7.738L20.4726 13.586L17.3446 24.5ZM33.5203 0.699998C35.4017 0.699998 36.7957 1.19867 37.7023 2.196C38.6317 3.19333 39.0963 4.65533 39.0963 6.582V9.676C39.0963 11.6027 38.6317 13.0647 37.7023 14.062C36.7957 15.0593 35.4017 15.558 33.5203 15.558H31.7523V24.5H28.0123V0.699998H33.5203ZM31.7523 4.1V12.158H33.5203C34.1097 12.158 34.563 11.9993 34.8803 11.682C35.1977 11.3647 35.3563 10.7753 35.3563 9.914V6.344C35.3563 5.48267 35.1977 4.89333 34.8803 4.576C34.563 4.25867 34.1097 4.1 33.5203 4.1H31.7523ZM44.6708 24.5H40.8288V0.699998H44.1608V15.762L45.5208 10.526L48.5808 0.699998H52.6948V24.5H49.3288V7.738L47.7988 13.586L44.6708 24.5ZM63.6345 18.448C63.4078 19.5133 63.1245 20.454 62.7845 21.27C62.4672 22.0633 62.0252 22.7207 61.4585 23.242C60.9145 23.7407 60.2005 24.1033 59.3165 24.33C58.4552 24.5567 57.3785 24.6247 56.0865 24.534V21.202C57.0385 21.27 57.7865 21.1793 58.3305 20.93C58.8745 20.6807 59.2258 20.1253 59.3845 19.264L59.4185 19.06L54.2505 0.699998H57.9565L59.9965 8.826L61.1525 14.402L62.0365 8.86L63.7365 0.699998H67.6465L63.6345 18.448ZM80.0634 15.626V18.788C80.0634 20.7147 79.5874 22.1993 78.6354 23.242C77.7061 24.262 76.3234 24.772 74.4874 24.772C72.6514 24.772 71.2574 24.262 70.3054 23.242C69.3761 22.1993 68.9114 20.7147 68.9114 18.788V6.412C68.9114 4.48533 69.3761 3.012 70.3054 1.992C71.2574 0.949333 72.6514 0.428 74.4874 0.428C76.3234 0.428 77.7061 0.949333 78.6354 1.992C79.5874 3.012 80.0634 4.48533 80.0634 6.412V8.724H76.5274V6.174C76.5274 5.31267 76.3461 4.712 75.9834 4.372C75.6434 4.00933 75.1788 3.828 74.5894 3.828C74.0001 3.828 73.5241 4.00933 73.1614 4.372C72.8214 4.712 72.6514 5.31267 72.6514 6.174V19.026C72.6514 19.8873 72.8214 20.488 73.1614 20.828C73.5241 21.168 74.0001 21.338 74.5894 21.338C75.1788 21.338 75.6434 21.168 75.9834 20.828C76.3461 20.488 76.5274 19.8873 76.5274 19.026V15.626H80.0634Z" fill="#2F2F2F"/>
</svg>
